<svg xmlns="http://www.w3.org/2000/svg" viewBox="0 0 500 500" width="100%" height="100%" fill="none">
  <!-- Rounded square background (Chalk white, matching input_file_1 / input_file_2) -->
  <rect width="500" height="500" rx="95" fill="#fbfafa"/>
  
  <g id="kent-coastal-brand">
    <!-- WiFi wave paths (Coastal blue: #085175) -->
    <path d="M152 115 A 138 138 0 0 1 348 115" stroke="#085175" stroke-width="25" stroke-linecap="round" fill="none" />
    <path d="M182 145 A 95 95 0 0 1 318 145" stroke="#085175" stroke-width="21" stroke-linecap="round" fill="none" />
    <path d="M213 176 A 51 51 0 0 1 287 176" stroke="#085175" stroke-width="17" stroke-linecap="round" fill="none" />
    
    <!-- Warm Sun dot (Golden Amber: #e29930) -->
    <circle cx="250" cy="216" r="15" fill="#e29930" />

    <!-- Cliff and landscape scenery mapped with coordinates and styled -->
    <!-- Clip to the lower part of the rounded square to maintain seamless edges -->
    <g clip-path="url(#cliff-clip)">
      <clipPath id="cliff-clip">
        <rect x="0" y="220" width="500" height="280" rx="95" />
      </clipPath>
      
      <!-- Base deep navy ocean terrain -->
      <path d="M0 220 L500 240 L500 500 L0 500 Z" fill="#01334d" />
      
      <!-- Coastal blue water body on the right -->
      <path d="M 230 330 C 310 320, 380 310, 500 300 L 500 500 L 160 500 Q 200 420, 230 330 Z" fill="#085175" />
      
      <!-- Winding Chalk Road/Beach curving upwards to the cliffs -->
      <path d="M170 500 C 228 445, 210 405, 232 375 L 246 375 C 224 415, 246 455, 192 500 Z" fill="#faf9f5" />

      <!-- Dover Cliffs Shaded Shaded Blocks (Slate grey-blue background shadows) -->
      <path d="M 175 340 L 210 235 H 250 L 265 315 Z" fill="#afb9bf" />
      <path d="M 245 315 L 275 250 H 310 L 320 310 Z" fill="#afb9bf" />
      <path d="M 310 310 L 335 258 H 365 L 375 310 Z" fill="#afb9bf" />

      <!-- Dover Cliffs Highlight Pillars (Chalk/Pure soft white) -->
      <!-- Pillar 1: left major cliff -->
      <path d="M 50 380 C 110 355, 135 320, 155 240 L 210 242 L 230 340 C 185 335, 100 345, 50 380 Z" fill="#fcfbfa" />
      <!-- Pillar 2 -->
      <path d="M 218 335 C 230 270, 236 245, 246 238 L 290 242 L 272 328 Z" fill="#fcfbfa" />
      <!-- Pillar 3 -->
      <path d="M 268 325 L 280 252 L 312 254 L 302 320 Z" fill="#fcfbfa" />
      <!-- Pillar 4 -->
      <path d="M 300 320 L 308 262 L 336 264 L 330 320 Z" fill="#fcfbfa" />
      <!-- Pillar 5 -->
      <path d="M 328 320 L 336 270 L 356 272 L 348 320 Z" fill="#fcfbfa" />
    </g>
  </g>
</svg>
